# xmcd
#
# Track frame offsets:
# 150
# 11238
# 22968
# 33659
# 47087
# 59506
# 72186
# 87473
# 101591
# 114393
# 124832
#
# Disc length: 1866 seconds
#
#
# Revision: 0
# Processed by: cddbd v1.5.1PL0 Copyright (c) Steve Scherf et al.
# Submitted via: FreeRIP 2.92 
#
DISCID=9507480b
DTITLE=Jimmy Reed - Sings The Best Of The Blues
DYEAR=2000
DGENRE=Blues
TTITLE0=St. Louis Blues
TTITLE1=Trouble in Mind
TTITLE2=Wee Wee Baby
TTITLE3=How Long Blues
TTITLE4=C.C. Rider
TTITLE5=Roll 'Em Pete
TTITLE6=Outskirts of Town
TTITLE7=The Come Back
TTITLE8=Cherry Red
TTITLE9=Worried Life Blues
TTITLE10=Five Long Years
EXTD=
EXTT0=
EXTT1=
EXTT2=
EXTT3=
EXTT4=
EXTT5=
EXTT6=
EXTT7=
EXTT8=
EXTT9=
EXTT10=
PLAYORDER=
